<svg width="240" height="240" viewBox="0 0 240 240" fill="none" xmlns="http://www.w3.org/2000/svg">
<rect width="240" height="240" fill="#1743EA"/>
<path fill-rule="evenodd" clip-rule="evenodd" d="M99.5679 90.6608C99.5679 113.669 118.22 132.322 141.229 132.322C164.238 132.322 182.889 113.669 182.889 90.6608C182.889 67.6522 164.238 49 141.229 49C118.22 49 99.5679 67.6522 99.5679 90.6608ZM166.225 90.6608C166.225 104.466 155.034 115.657 141.229 115.657C127.424 115.657 116.233 104.466 116.233 90.6608C116.233 76.8556 127.424 65.6643 141.229 65.6643C155.034 65.6643 166.225 76.8556 166.225 90.6608Z" fill="white"/>
<path d="M65.5454 118.247H140V135H49V49H140V65.7532H65.5454V118.247Z" fill="white"/>
<path fill-rule="evenodd" clip-rule="evenodd" d="M187.69 176.776L63.2434 52.3291C57.9948 47.0806 49.0206 50.797 49.0195 58.2195L49 182.666C48.9993 187.268 52.7299 191 57.3322 191H181.799C189.221 191 192.939 182.025 187.69 176.776ZM65.6647 174.336L65.6797 78.3333L161.682 174.336H65.6647Z" fill="white"/>
</svg>
